<?xml version="1.0" encoding="UTF-8" standalone="no"?>
<!DOCTYPE svg PUBLIC "-//W3C//DTD SVG 1.1//EN" "http://www.w3.org/Graphics/SVG/1.1/DTD/svg11.dtd">
<svg width="100%" height="100%" viewBox="0 0 427 641" version="1.1" xmlns="http://www.w3.org/2000/svg" xmlns:xlink="http://www.w3.org/1999/xlink" xml:space="preserve" xmlns:serif="http://www.serif.com/" style="fill-rule:evenodd;clip-rule:evenodd;stroke-linejoin:round;stroke-miterlimit:2;">
    <g transform="matrix(1,0,0,1,-5880.29,-223.521)">
        <g transform="matrix(1,0,0,1,5550,0)">
            <g transform="matrix(1,0,0,1,-69.2889,73.4874)">
                <g transform="matrix(811.783,217.517,-217.517,811.783,367.105,709.232)">
                    <path d="M0.26,-0.44C0.226,-0.44 0.192,-0.432 0.161,-0.417L0.161,-0.7L0.04,-0.7L0.04,-0L0.161,-0L0.161,-0.024C0.242,0.017 0.34,0.004 0.408,-0.057C0.475,-0.118 0.498,-0.214 0.465,-0.299C0.433,-0.384 0.351,-0.44 0.26,-0.44ZM0.26,-0.121C0.205,-0.121 0.161,-0.165 0.161,-0.22C0.161,-0.275 0.205,-0.319 0.26,-0.319C0.315,-0.319 0.359,-0.275 0.359,-0.22C0.359,-0.165 0.315,-0.121 0.26,-0.121L0.26,-0.121Z" style="fill:white;fill-rule:nonzero;"/>
                </g>
                <g transform="matrix(1.97892,0,0,1.97892,-13946.4,-7449.43)">
                    <path d="M7465.13,4163.96L7408.91,4163.96C7407.69,4163.96 7406.64,4163.09 7406.42,4161.89C7406.2,4160.69 7406.87,4159.51 7408.01,4159.07C7432.02,4149.96 7451.13,4130.85 7460.26,4106.85C7460.69,4105.72 7461.87,4105.06 7463.05,4105.28C7464.24,4105.5 7465.1,4106.53 7465.1,4107.74C7465.13,4130.16 7465.13,4163.96 7465.13,4163.96Z" style="fill:white;"/>
                </g>
            </g>
        </g>
    </g>
</svg>
